<svg id="filled_outline" height="512" viewBox="0 0 512 512" width="512" xmlns="http://www.w3.org/2000/svg" data-name="filled outline"><path d="m32 488 16-40h-16l24-40h-24l24-40h-24l40-64 32 56 32-72 24 56 32-56 16 24 88 8 24-40 24 40 32-56 24 40 24-40 36.064 90.161-23.928 2.544 39.125 35.295-21.952 3.637 34.691 28.363v64z" fill="#2a6377"/><path d="m416 488-168-240-152 240z" fill="#ffd199"/><path d="m96 488 128-202.105 24-37.895v240z" fill="#feac4f"/><path d="m456 311.637h16v176.726h-16z" fill="#96d6e4" transform="matrix(.996 -.091 .091 .996 -34.309 43.651)"/><path d="m156.8 392-60.8 96h152v-96z" fill="#d68029"/><path d="m216 392-8 48h-40l24-48z" fill="#0a4566"/><path d="m296 488-16-120 32 8 48 112z" fill="#0a4566"/><path d="m214.647 24a39.994 39.994 0 0 1 -70.095 35.028 48 48 0 1 0 70.095-35.028z" fill="#efd66a"/><path d="m280 368 42.105-7.655a255.952 255.952 0 0 0 85.895-32.345l48 8a172.578 172.578 0 0 1 -110.482 40h-33.518z" fill="#d68029"/><path d="m408 311.637h16v176.726h-16z" fill="#96d6e4" transform="matrix(.996 -.091 .091 .996 -34.506 39.306)"/><path d="m408 128h-8a16 16 0 0 0 -16 16 16 16 0 0 0 16 16h56a16 16 0 0 1 16 16 16 16 0 0 1 -16 16h-112a32 32 0 0 1 -32-32h-40v8a24 24 0 0 1 -24 24h-40a24 24 0 0 1 -24 24h-64a16 16 0 0 1 -16-16 16 16 0 0 1 16-16h31.992a16.026 16.026 0 0 0 16.008-16.079v-.4a15.511 15.511 0 0 0 -15.535-15.521h-.465a16.017 16.017 0 0 1 -16-16.079v-.4a15.54 15.54 0 0 1 15.543-15.54l72.457.019v-16.937a39.063 39.063 0 0 1 39.063-39.063h24.937v-16a16 16 0 0 1 16-16h72a16 16 0 0 1 16 16 16 16 0 0 1 -16 16h-16a16 16 0 0 0 -16 16 16 16 0 0 0 16 16h48a16 16 0 0 1 16 16 16 16 0 0 1 -16 16z" fill="#2993ce"/><path d="m16 480h480v16h-480z" fill="#4895aa"/><path d="m463.967 311.275-15.934 1.45 1.277 14.049-32.425-5.4-.918-10.1-15.934 1.45.921 10.129a246.884 246.884 0 0 1 -71.326 27.808l-22.99-32.843 13.362-22.269 17.14 28.567a8 8 0 0 0 6.86 3.884h.085a8 8 0 0 0 6.861-4.031l25.222-44.139 16.972 28.286a8 8 0 0 0 13.72 0l15.7-26.171 10.01 25.026 14.856-5.942-16-40a8 8 0 0 0 -14.288-1.145l-17.138 28.567-17.14-28.567a8 8 0 0 0 -13.806.147l-25.222 44.139-16.972-28.286a8 8 0 0 0 -13.72 0l-16.549 27.581-42.037-60.053-.014.01a7.975 7.975 0 0 0 -13.3.3l-33.687 53.19-8.9-13.348a8 8 0 0 0 -13.6.469l-24.029 42.051-17.672-41.233a8 8 0 0 0 -14.664-.1l-25.582 57.561-24.16-42.281a8 8 0 0 0 -13.73-.271l-40 64a8 8 0 0 0 6.784 12.24h9.871l-16.731 27.884a8 8 0 0 0 6.86 12.116h9.871l-16.731 27.884a8 8 0 0 0 6.86 12.116h4.184l-9.6 24h-10.584v16h480v-16h-16.694zm-.727 168.725h-31.934l-10.236-112.59a180.6 180.6 0 0 0 30.324-17.71zm-302.04-80h17.853l-18.211 36.422a8 8 0 0 0 7.158 11.578h40a8 8 0 0 0 7.891-6.685l6.886-41.315h17.223v80h-129.464zm35.741 0h9.612l-5.333 32h-20.276zm59.059-126.621 56.417 80.6-33.848 6.154a8 8 0 0 0 -6.565 7.61 8.107 8.107 0 0 0 .068 1.318l.008.059v.018l14.783 110.862h-30.863zm33.486 105.238 16.724 4.183 41.658 97.2h-44.868zm34.646 5.383h9.3l67.2 96h-35.36zm28.725-.155a180.713 180.713 0 0 0 52.718-10.158l8.929 98.226zm83.279-43.045a164.582 164.582 0 0 1 -16.613 9.586l-1.141-12.545zm-32.06 16.406a164.651 164.651 0 0 1 -58.558 10.794h-20.81a262.885 262.885 0 0 0 77.834-27.678zm-164.076 26.794h-68.664l68.664-108.417zm-185.375 59.515a8 8 0 0 0 -6.625-3.515h-1.871l16.731-27.884a8 8 0 0 0 -6.86-12.116h-9.871l16.731-27.884a8 8 0 0 0 -6.86-12.116h-9.566l25.258-40.414 25.362 44.383a8 8 0 0 0 14.257-.72l24.556-55.249 16.78 39.153a8 8 0 0 0 14.3.818l25.578-44.761 5.662 8.493-106.587 168.297h-47.784l11.612-29.029a8 8 0 0 0 -.803-7.456z"/><path d="m480 176a24.027 24.027 0 0 0 -24-24h-56a8 8 0 0 1 0-16h8a24 24 0 0 0 0-48h-48a8 8 0 0 1 0-16h16a24 24 0 0 0 0-48h-72a24.027 24.027 0 0 0 -24 24v8h-16.937a46.826 46.826 0 0 0 -15.586 2.664 55.955 55.955 0 0 0 -29.049-41.715 8 8 0 0 0 -11.511 9.111 31.995 31.995 0 0 1 -56.078 28.022 8 8 0 0 0 -14.195 3.739 55.99 55.99 0 0 0 22.99 54.162h-8.089a23.539 23.539 0 0 0 -23.545 23.537v.4a24.07 24.07 0 0 0 24.017 24.08h.473a7.511 7.511 0 0 1 7.51 7.51v.407a8.059 8.059 0 0 1 -8.008 8.083h-31.992a24 24 0 0 0 0 48h64a32.058 32.058 0 0 0 30.988-24h33.012a32.036 32.036 0 0 0 32-32h24.8a40.071 40.071 0 0 0 39.2 32h112a24.027 24.027 0 0 0 24-24zm-304-93.674a48.073 48.073 0 0 0 47.45-40.726 39.947 39.947 0 0 1 8.55 24.726c0 .487-.023.974-.041 1.461a46.991 46.991 0 0 0 -15.7 30.333 39.994 39.994 0 0 1 -62.9-21.445 47.822 47.822 0 0 0 22.641 5.651zm144 77.674a8 8 0 0 0 -8-8h-40a8 8 0 0 0 -8 8v8a16.019 16.019 0 0 1 -16 16h-40a8 8 0 0 0 -8 8 16.019 16.019 0 0 1 -16 16h-64a8 8 0 0 1 0-16h31.991.006a24.079 24.079 0 0 0 24.003-24.068v-.408a23.512 23.512 0 0 0 -23.513-23.524h-.487a8.049 8.049 0 0 1 -8-8.078v-.4a7.539 7.539 0 0 1 7.54-7.54l72.46.018a8 8 0 0 0 8-8v-16.938a31.1 31.1 0 0 1 31.063-31.062h24.937a8 8 0 0 0 8-8v-16a8.009 8.009 0 0 1 8-8h72a8 8 0 0 1 0 16h-16a24 24 0 0 0 0 48h48a8 8 0 0 1 0 16h-8a24 24 0 0 0 0 48h56a8 8 0 0 1 0 16h-112a24.027 24.027 0 0 1 -24-24z"/><path d="m24 136h16v16h-16z"/><path d="m72 40h16v16h-16z"/><path d="m48 56h16v16h-16z"/><path d="m56 216h16v16h-16z"/><path d="m96 112h16v16h-16z"/><path d="m136 24h16v16h-16z"/><path d="m416 56h16v16h-16z"/><path d="m464 112h16v16h-16z"/><path d="m440 40h16v16h-16z"/><path d="m360 224h16v16h-16z"/><path d="m384 208h16v16h-16z"/></svg>