<?xml version="1.0" encoding="iso-8859-1"?>
<!-- Generator: Adobe Illustrator 19.0.0, SVG Export Plug-In . SVG Version: 6.00 Build 0)  -->
<svg version="1.1" id="Capa_1" xmlns="http://www.w3.org/2000/svg" xmlns:xlink="http://www.w3.org/1999/xlink" x="0px" y="0px"
	 viewBox="0 0 480 480" style="enable-background:new 0 0 480 480;" xml:space="preserve">
<path style="fill:#88D0EF;" d="M408,240V80c0-22.091-17.909-40-40-40H128c-10.693,0.139-20.882,4.566-28.28,12.288
	c-7.502,7.5-11.718,17.672-11.72,28.28V376H8v24c0,10.611,4.216,20.786,11.72,28.288C27.213,435.799,37.391,440.014,48,440h240
	c10.603,0.006,20.773-4.208,28.264-11.712c7.51-7.499,11.732-17.675,11.736-28.288V296h112c17.673,0,32-14.327,32-32v-24H408z"/>
<path style="fill:#7D8F9F;" d="M158.056,272c-11.13,0.032-21.81-4.393-29.656-12.288l-73.088-73.08
	c-9.751-9.756-9.747-25.57,0.009-35.321c4.681-4.679,11.028-7.308,17.647-7.311c6.623,0.017,12.971,2.648,17.664,7.32l51.024,51.024
	c3.069,3.178,2.981,8.243-0.197,11.312c-3.1,2.994-8.015,2.994-11.115,0l-51.032-51.024c-3.504-3.501-9.183-3.5-12.684,0.004
	c-3.501,3.504-3.5,9.183,0.004,12.684l73.08,73.08c10.016,10.246,26.442,10.432,36.688,0.415
	c10.246-10.016,10.432-26.442,0.416-36.688c-0.137-0.14-0.275-0.279-0.416-0.416L89.048,124.36
	c-7.956-7.964-18.767-12.414-30.024-12.36h-0.8C34.919,112.013,16.027,130.895,16,154.2v1c-0.028,11.198,4.422,21.942,12.36,29.84
	l65.296,65.296c3.069,3.178,2.982,8.242-0.196,11.312c-3.1,2.994-8.015,2.994-11.116,0L17.048,196.36
	C6.096,185.468-0.043,170.646,0,155.2v-1.008C0.044,122.069,26.077,96.04,58.2,96H59c15.503-0.066,30.387,6.073,41.336,17.048
	l87.376,87.352c16.383,16.371,16.393,42.923,0.022,59.306C179.865,267.581,169.188,272.004,158.056,272L158.056,272z"/>
<g>
	<path style="fill:#2DB3C9;" d="M440,296c-8.498,0.02-16.651-3.356-22.648-9.376c-5.993-6.004-9.357-14.141-9.352-22.624V80
		c0-10.607-4.213-20.779-11.712-28.28c-15.621-15.621-40.947-15.621-56.568,0C332.218,59.22,328.002,69.392,328,80v216H440z"/>
	<path style="fill:#2DB3C9;" d="M288,440c-10.601,0.006-20.768-4.208-28.256-11.712C252.231,420.79,248.007,410.614,248,400v-24H8
		v24c0,10.611,4.216,20.786,11.72,28.288C27.213,435.8,37.391,440.015,48,440H288z"/>
</g>
<g>
	<path style="fill:#5A6570;" d="M280,112H136c-4.418,0-8-3.582-8-8s3.582-8,8-8h144c4.418,0,8,3.582,8,8S284.418,112,280,112z"/>
	<path style="fill:#5A6570;" d="M280,152H168c-4.418,0-8-3.582-8-8s3.582-8,8-8h112c4.418,0,8,3.582,8,8S284.418,152,280,152z"/>
	<path style="fill:#5A6570;" d="M280,192h-72c-4.418,0-8-3.582-8-8s3.582-8,8-8h72c4.418,0,8,3.582,8,8S284.418,192,280,192z"/>
	<path style="fill:#5A6570;" d="M280,232h-56c-4.418,0-8-3.582-8-8s3.582-8,8-8h56c4.418,0,8,3.582,8,8S284.418,232,280,232z"/>
	<path style="fill:#5A6570;" d="M280,272h-64c-4.418,0-8-3.582-8-8s3.582-8,8-8h64c4.418,0,8,3.582,8,8S284.418,272,280,272z"/>
	<path style="fill:#5A6570;" d="M280,312H136c-4.418,0-8-3.582-8-8s3.582-8,8-8h144c4.418,0,8,3.582,8,8S284.418,312,280,312z"/>
	<path style="fill:#5A6570;" d="M280,352H136c-4.418,0-8-3.582-8-8s3.582-8,8-8h144c4.418,0,8,3.582,8,8S284.418,352,280,352z"/>
</g>
<path d="M82.344,261.656c3.178,3.07,8.242,2.982,11.312-0.196c2.995-3.1,2.995-8.016,0-11.116L28.36,185.048
	c-7.94-7.9-12.391-18.647-12.36-29.848v-1.008C16.031,130.9,34.908,112.027,58.2,112H59c11.257-0.054,22.068,4.396,30.024,12.36
	l87.376,87.352c10.246,10.016,10.432,26.442,0.416,36.688c-10.016,10.246-26.442,10.432-36.688,0.416
	c-0.14-0.137-0.279-0.276-0.416-0.416l-73.08-73.08c-3.504-3.501-3.505-9.18-0.004-12.684c3.501-3.504,9.18-3.505,12.684-0.004
	l51.032,51.024c3.178,3.069,8.243,2.981,11.312-0.197c2.994-3.1,2.994-8.015,0-11.115L90.632,151.32
	c-9.746-9.756-25.555-9.764-35.31-0.018c-4.69,4.686-7.325,11.044-7.322,17.674c-0.019,6.626,2.614,12.984,7.312,17.656
	l73.088,73.08c16.379,16.379,42.933,16.379,59.312,0s16.379-42.933,0-59.312l-87.352-87.352C89.411,102.073,74.527,95.934,59.024,96
	h-0.8C26.088,96.027,0.04,122.064,0,154.2v1c-0.041,15.444,6.098,30.262,17.048,41.152L82.344,261.656z"/>
<path d="M472,232h-56V80c0-26.51-21.49-48-48-48H128c-26.505,0.536-47.776,22.058-48,48.568c0,4.418,3.582,8,8,8s8-3.582,8-8
	c-0.026-8.492,3.351-16.64,9.376-22.624C111.29,51.746,119.435,48.166,128,48h204.296c-7.931,8.769-12.314,20.176-12.296,32v320
	c0.024,8.494-3.352,16.644-9.376,22.632c-12.668,12.069-32.58,12.069-45.248,0c-6.027-5.986-9.404-14.138-9.376-22.632v-24
	c0-4.418-3.582-8-8-8H96v-72c0-4.418-3.582-8-8-8s-8,3.582-8,8v72H8c-4.418,0-8,3.582-8,8v24c0,26.51,21.49,48,48,48h240
	c26.51,0,48-21.49,48-48v-96h104c22.091,0,40-17.909,40-40v-24C480,235.582,476.419,232,472,232L472,232z M48,432
	c-17.673,0-32-14.327-32-32v-16h224v16c-0.019,11.825,4.368,23.233,12.304,32H48z M336,288V80
	c-0.024-8.494,3.352-16.644,9.376-22.632c12.668-12.069,32.58-12.069,45.248,0C396.651,63.354,400.028,71.506,400,80v184
	c0.025,8.683,2.907,17.117,8.2,24H336z M464,264c0.015,6.37-2.517,12.482-7.032,16.976c-9.5,9.056-24.436,9.056-33.936,0
	C418.52,276.48,415.989,270.37,416,264v-16h48L464,264z"/>
<path d="M280,96H136c-4.418,0-8,3.582-8,8s3.582,8,8,8h144c4.418,0,8-3.582,8-8S284.418,96,280,96z"/>
<path d="M280,136H168c-4.418,0-8,3.582-8,8s3.582,8,8,8h112c4.418,0,8-3.582,8-8S284.418,136,280,136z"/>
<path d="M280,176h-72c-4.418,0-8,3.582-8,8s3.582,8,8,8h72c4.418,0,8-3.582,8-8S284.418,176,280,176z"/>
<path d="M280,216h-56c-4.418,0-8,3.582-8,8s3.582,8,8,8h56c4.418,0,8-3.582,8-8S284.418,216,280,216z"/>
<path d="M280,256h-64c-4.418,0-8,3.582-8,8s3.582,8,8,8h64c4.418,0,8-3.582,8-8S284.418,256,280,256z"/>
<path d="M280,296H136c-4.418,0-8,3.582-8,8s3.582,8,8,8h144c4.418,0,8-3.582,8-8S284.418,296,280,296z"/>
<path d="M280,336H136c-4.418,0-8,3.582-8,8s3.582,8,8,8h144c4.418,0,8-3.582,8-8S284.418,336,280,336z"/>
<g>
</g>
<g>
</g>
<g>
</g>
<g>
</g>
<g>
</g>
<g>
</g>
<g>
</g>
<g>
</g>
<g>
</g>
<g>
</g>
<g>
</g>
<g>
</g>
<g>
</g>
<g>
</g>
<g>
</g>
</svg>
