<?xml version="1.0" encoding="iso-8859-1"?>
<!-- Generator: Adobe Illustrator 19.0.0, SVG Export Plug-In . SVG Version: 6.00 Build 0)  -->
<svg version="1.1" id="Capa_1" xmlns="http://www.w3.org/2000/svg" xmlns:xlink="http://www.w3.org/1999/xlink" x="0px" y="0px"
	 viewBox="0 0 480.303 480.303" style="enable-background:new 0 0 480.303 480.303;" xml:space="preserve">
<path style="fill:#7D8F9F;" d="M125.6,344.264H120c-4.418,0-8-3.582-8-8s3.582-8,8-8h5.6c14.58,0,26.4-11.82,26.4-26.4v-21.6
	c0-4.418,3.582-8,8-8s8,3.582,8,8v21.6C168,325.281,149.017,344.264,125.6,344.264z"/>
<path style="fill:#7FCCCB;" d="M184,336.264h64l72,72l-63.832,63.832l-72-72L184,336.264z"/>
<path style="fill:#D1E3EE;" d="M184,184.264l176-80v240l-176-64V184.264z"/>
<path style="fill:#A9BFD1;" d="M184,248.264l176,64v32l-176-64V248.264z"/>
<path style="fill:#E3472C;" d="M184,280.264H56c-12.731,0.002-24.941-5.055-33.944-14.056
	c-18.747-18.744-18.749-49.135-0.006-67.882c0.002-0.002,0.004-0.004,0.006-0.006c9.003-9.001,21.213-14.058,33.944-14.056h128
	V280.264z"/>
<path style="fill:#B21D47;" d="M22.056,234.208c-5.013-5.071-8.825-11.203-11.152-17.944c-8.925,24.868,4,52.263,28.868,61.188
	c5.206,1.868,10.697,2.82,16.228,2.812h128v-32H56C43.269,248.266,31.059,243.21,22.056,234.208z"/>
<path style="fill:#7D8F9F;" d="M56,280.264h64v128H56V280.264z"/>
<path style="fill:#394D5D;" d="M104,392.264v-112h16v128H56v-16H104z"/>
<path style="fill:#E3472C;" d="M376,80.265L376,80.265c8.837,0,16,7.163,16,16v256c0,8.837-7.163,16-16,16l0,0
	c-8.837,0-16-7.163-16-16v-256C360,87.428,367.163,80.265,376,80.265z"/>
<path style="fill:#D1E3EE;" d="M392,256.264c17.673,0,32-14.327,32-32s-14.327-32-32-32V256.264z"/>
<path style="fill:#A9BFD1;" d="M392,240.264v16c17.464,0.209,31.791-13.78,32-31.244c0.035-2.957-0.344-5.905-1.128-8.756
	C419.257,230.368,406.559,240.239,392,240.264z"/>
<circle style="fill:#F6F6E7;" cx="88" cy="232.264" r="24"/>
<path style="fill:#FFFFFF;" d="M224,392.264c-8.837,0-16-7.163-16-16s7.163-16,16-16s16,7.163,16,16S232.837,392.264,224,392.264z"
	/>
<g>
	<path style="fill:#394D5D;" d="M56,304.264h24v16H56V304.264z"/>
	<path style="fill:#394D5D;" d="M56,336.264h24v16H56V336.264z"/>
	<path style="fill:#394D5D;" d="M56,368.264h24v16H56V368.264z"/>
</g>
<g>
	<path style="fill:#EC7422;" d="M424,96.265c-4.418,0.005-8.004-3.572-8.01-7.99c-0.003-2.678,1.334-5.18,3.562-6.666l48-32
		c3.676-2.452,8.644-1.46,11.096,2.216c2.452,3.676,1.46,8.644-2.216,11.096l0,0l-48,32C427.12,95.796,425.578,96.263,424,96.265z"
		/>
	<path style="fill:#EC7422;" d="M432,176.264c-4.418,0.004-8.004-3.574-8.008-7.992c-0.004-3.808,2.677-7.09,6.408-7.848l40-8
		c4.3-1.015,8.609,1.648,9.624,5.948s-1.648,8.609-5.948,9.624c-0.179,0.042-0.359,0.078-0.54,0.108l-40,8
		C433.031,176.21,432.516,176.264,432,176.264L432,176.264z"/>
	<path style="fill:#EC7422;" d="M472,296.264c-0.538,0.004-1.074-0.05-1.6-0.16l-40-8c-4.36-0.717-7.313-4.832-6.596-9.192
		c0.717-4.36,4.832-7.313,9.192-6.596c0.181,0.03,0.361,0.066,0.54,0.108l40,8c4.33,0.879,7.128,5.101,6.249,9.431
		C479.032,293.564,475.784,296.238,472,296.264L472,296.264z"/>
	<path style="fill:#EC7422;" d="M472,384.264c-1.235,0.012-2.456-0.261-3.568-0.8l-48-24c-3.954-1.975-5.559-6.782-3.584-10.736
		c1.975-3.954,6.782-5.559,10.736-3.584l0,0l48,24c3.932,2.014,5.487,6.835,3.473,10.767
		C477.699,382.564,474.979,384.241,472,384.264z"/>
</g>
<g>
	<path style="fill:#B21D48;" d="M8,160.264c-4.418-0.001-7.999-3.583-7.998-8.002c0-2.121,0.843-4.154,2.342-5.654l72-72
		c3.178-3.069,8.243-2.981,11.312,0.197c2.994,3.1,2.994,8.015,0,11.115l-72,72C12.156,159.421,10.122,160.264,8,160.264L8,160.264z
		"/>
	<path style="fill:#B21D48;" d="M72,160.264c-8.837,0-16-7.163-16-16s7.163-16,16-16s16,7.163,16,16S80.837,160.264,72,160.264z"/>
	<path style="fill:#B21D48;" d="M16,104.265c-8.837,0-16-7.163-16-16s7.163-16,16-16s16,7.163,16,16S24.837,104.265,16,104.265z"/>
</g>
<path style="fill:#FFD884;" d="M264,56.264c0-8.837,7.163-16,16-16v-32H120v32c8.837,0,16,7.163,16,16s-7.163,16-16,16v32h160v-32
	C271.163,72.265,264,65.101,264,56.264z"/>
<g>
	<path style="fill:#A08040;" d="M216,24.265h16v16h-16V24.265z"/>
	<path style="fill:#A08040;" d="M216,88.265h16v16h-16V88.265z"/>
	<path style="fill:#A08040;" d="M216,56.264h16v16h-16V56.264z"/>
</g>
<path style="fill:#FFFFFF;" d="M208,208.264c-4.418,0.005-8.004-3.573-8.008-7.992c-0.003-3.124,1.812-5.964,4.648-7.272l104-48
	c4.012-1.851,8.765-0.1,10.616,3.912c1.851,4.012,0.1,8.765-3.912,10.616l-104,48C210.296,208.015,209.155,208.266,208,208.264
	L208,208.264z"/>
<path d="M48,287.633v120.632c0,4.418,3.582,8,8,8h64c4.418,0,8-3.582,8-8v-64.152c22.44-1.22,40.008-19.775,40-42.248v-13.6h14.6
	l169.4,61.6v2.4c0,13.255,10.745,24,24,24s24-10.745,24-24v-88.8c21.65-4.396,35.636-25.51,31.24-47.16
	c-3.196-15.741-15.499-28.044-31.24-31.24v-88.8c0-13.255-10.745-24-24-24s-24,10.745-24,24l0,0v2.848l-169.728,77.152H56
	c-30.927,0.21-55.828,25.452-55.618,56.38C0.57,260.191,20.763,283.51,48,287.633L48,287.633z M400,201.737
	c12.442,4.335,19.014,17.935,14.68,30.376c-2.396,6.877-7.802,12.284-14.68,14.68V201.737z M368,344.264v-248c0-4.418,3.582-8,8-8
	s8,3.582,8,8v256c0,4.418-3.582,8-8,8s-8-3.582-8-8V344.264z M192,189.416l160-72.728V332.84l-160-58.176V189.416z M112,400.264H64
	v-16h16v-16H64v-16h16v-16H64v-16h16v-16H64v-16h48V400.264z M152,301.865c0.045,13.638-10.407,25.017-24,26.128v-39.728h24V301.865
	z M27.72,203.984c7.483-7.527,17.666-11.747,28.28-11.72h120v80H56c-22.091-0.005-39.996-17.917-39.991-40.009
	C16.011,221.652,20.223,211.484,27.72,203.984z"/>
<path d="M88,256.264c13.255,0,24-10.745,24-24c0-13.255-10.745-24-24-24s-24,10.745-24,24C64,245.519,74.745,256.264,88,256.264z
	 M88,224.264c4.418,0,8,3.582,8,8s-3.582,8-8,8s-8-3.582-8-8S83.582,224.264,88,224.264z"/>
<circle cx="224" cy="376.264" r="16"/>
<path d="M478.656,51.824c-2.451-3.676-7.418-4.668-11.094-2.217c-0.001,0-0.001,0.001-0.002,0.001l-48,32
	c-3.676,2.452-4.668,7.42-2.216,11.096c2.452,3.676,7.42,4.668,11.096,2.216l0,0l48-32c3.676-2.451,4.668-7.418,2.217-11.094
	C478.657,51.826,478.656,51.825,478.656,51.824z"/>
<path d="M470.4,152.424l-40,8c-4.33,0.879-7.127,5.102-6.248,9.432c0.758,3.731,4.04,6.412,7.848,6.408
	c0.538,0.004,1.074-0.05,1.6-0.16l40-8c4.36-0.717,7.313-4.832,6.596-9.192c-0.717-4.36-4.832-7.313-9.192-6.596
	c-0.181,0.03-0.361,0.066-0.54,0.108H470.4z"/>
<path d="M473.6,280.424l-40-8c-4.3-1.015-8.609,1.648-9.624,5.948s1.648,8.609,5.948,9.624c0.179,0.042,0.359,0.078,0.54,0.108l40,8
	c0.505,0.105,1.02,0.159,1.536,0.16c4.418,0.004,8.004-3.574,8.008-7.992C480.012,284.465,477.332,281.182,473.6,280.424
	L473.6,280.424z"/>
<path d="M475.576,369.104l-48-24c-3.954-1.975-8.761-0.37-10.736,3.584c-1.975,3.954-0.37,8.761,3.584,10.736l48,24
	c3.954,1.975,8.761,0.37,10.736-3.584C481.135,375.886,479.53,371.079,475.576,369.104z"/>
<path d="M8,160.264c2.122,0,4.156-0.844,5.656-2.344l72-72c3.069-3.178,2.981-8.243-0.197-11.312c-3.1-2.994-8.015-2.994-11.115,0
	l-72,72c-3.124,3.125-3.123,8.19,0.002,11.314C3.845,159.422,5.879,160.264,8,160.264L8,160.264z"/>
<circle cx="72" cy="144.264" r="16"/>
<circle cx="16" cy="88.265" r="16"/>
<path d="M248,328.264h-64c-4.418,0-8,3.582-8,8l0.168,63.832c0.015,2.102,0.857,4.114,2.344,5.6l72,72
	c3.124,3.123,8.188,3.123,11.312,0l63.832-63.84c3.123-3.124,3.123-8.188,0-11.312l-72-72
	C252.146,329.068,250.112,328.248,248,328.264z M256.168,460.785l-64-64L192,344.265h52.664l64,64L256.168,460.785z"/>
<path d="M280,48.264c4.418,0,8-3.582,8-8v-32c0-4.418-3.582-8-8-8H120c-4.418,0-8,3.582-8,8v32c0,4.418,3.582,8,8,8s8,3.582,8,8
	s-3.582,8-8,8s-8,3.582-8,8v32c0,4.418,3.582,8,8,8h160c4.418,0,8-3.582,8-8v-32c0-4.418-3.582-8-8-8s-8-3.582-8-8
	S275.582,48.264,280,48.264z M272,33.632c-12.499,4.411-19.056,18.12-14.645,30.619c2.416,6.845,7.8,12.229,14.645,14.645v17.368
	h-40v-8h-16v8h-88V78.897c12.499-4.411,19.056-18.12,14.645-30.619c-2.416-6.845-7.8-12.229-14.645-14.645V16.265h144V33.632z"/>
<path d="M216,24.265h16v16h-16V24.265z"/>
<path d="M216,56.264h16v16h-16V56.264z"/>
<g>
</g>
<g>
</g>
<g>
</g>
<g>
</g>
<g>
</g>
<g>
</g>
<g>
</g>
<g>
</g>
<g>
</g>
<g>
</g>
<g>
</g>
<g>
</g>
<g>
</g>
<g>
</g>
<g>
</g>
</svg>
